<?xml version="1.0" encoding="UTF-8"?>
<svg width="32" height="32" viewBox="0 0 32 32" fill="none" xmlns="http://www.w3.org/2000/svg">
  <!-- Fondo circular -->
  <circle cx="16" cy="16" r="16" fill="#3b82f6"/>
  
  <!-- Icono de herramienta (llave inglesa) -->
  <path d="M24.5 7.5a5.5 5.5 0 0 0-7.7 7.7L8.7 23.3a1 1 0 0 0 0 1.4l1.6 1.6a1 1 0 0 0 1.4 0l8.1-8.1a5.5 5.5 0 0 0 7.7-7.7l-2.1 2.1a2 2 0 0 1-2.8 0l-1.4-1.4a2 2 0 0 1 0-2.8l2.1-2.1z" 
        fill="white" 
        stroke="white" 
        stroke-width="1.5" 
        stroke-linecap="round" 
        stroke-linejoin="round"/>
</svg> 